<svg width="28" height="30" viewBox="0 0 28 30" fill="none" xmlns="http://www.w3.org/2000/svg">
<path d="M9.78665 17.0133L18.8933 22.32M18.88 7.68L9.78665 12.9867M26.3333 5.66667C26.3333 7.87581 24.5425 9.66667 22.3333 9.66667C20.1242 9.66667 18.3333 7.87581 18.3333 5.66667C18.3333 3.45753 20.1242 1.66667 22.3333 1.66667C24.5425 1.66667 26.3333 3.45753 26.3333 5.66667ZM10.3333 15C10.3333 17.2091 8.54245 19 6.33331 19C4.12417 19 2.33331 17.2091 2.33331 15C2.33331 12.7909 4.12417 11 6.33331 11C8.54245 11 10.3333 12.7909 10.3333 15ZM26.3333 24.3333C26.3333 26.5425 24.5425 28.3333 22.3333 28.3333C20.1242 28.3333 18.3333 26.5425 18.3333 24.3333C18.3333 22.1242 20.1242 20.3333 22.3333 20.3333C24.5425 20.3333 26.3333 22.1242 26.3333 24.3333Z" stroke="#1E1E1E" stroke-width="3" stroke-linecap="round" stroke-linejoin="round"/>
</svg>
