<svg width="30" height="30" viewBox="0 0 30 30" fill="none" xmlns="http://www.w3.org/2000/svg">
<circle cx="15" cy="15" r="15" fill="#1E1E23"/>
<mask id="path-2-inside-1_3_368" fill="white">
<path fill-rule="evenodd" clip-rule="evenodd" d="M1.67771 21.9C4.17523 17.0877 9.20367 13.8 15 13.8C20.7963 13.8 25.8248 17.0877 28.3223 21.9C25.8248 26.7123 20.7963 30 15 30C9.20367 30 4.17523 26.7123 1.67771 21.9Z"/>
</mask>
<path fill-rule="evenodd" clip-rule="evenodd" d="M1.67771 21.9C4.17523 17.0877 9.20367 13.8 15 13.8C20.7963 13.8 25.8248 17.0877 28.3223 21.9C25.8248 26.7123 20.7963 30 15 30C9.20367 30 4.17523 26.7123 1.67771 21.9Z" fill="white"/>
<path d="M1.67771 21.9L0.790129 21.4394L0.551063 21.9L0.790129 22.3606L1.67771 21.9ZM28.3223 21.9L29.2099 22.3606L29.4489 21.9L29.2099 21.4394L28.3223 21.9ZM2.5653 22.3606C4.89761 17.8666 9.59151 14.8 15 14.8V12.8C8.81584 12.8 3.45284 16.3087 0.790129 21.4394L2.5653 22.3606ZM15 14.8C20.4085 14.8 25.1024 17.8666 27.4347 22.3606L29.2099 21.4394C26.5472 16.3087 21.1842 12.8 15 12.8V14.8ZM27.4347 21.4394C25.1024 25.9334 20.4085 29 15 29V31C21.1842 31 26.5472 27.4913 29.2099 22.3606L27.4347 21.4394ZM15 29C9.59151 29 4.89761 25.9334 2.5653 21.4394L0.790129 22.3606C3.45284 27.4913 8.81584 31 15 31V29Z" fill="#1E1E1E" mask="url(#path-2-inside-1_3_368)"/>
<path d="M15.6 7.80001H25.8C25.6773 4.13749 20.2353 1.20001 15.8318 1.20001C15.7543 1.20001 15.677 1.20092 15.6 1.20273V7.80001Z" fill="white"/>
<path d="M14.4 7.80001H4.20002C4.32273 4.13749 9.7647 1.20001 14.1682 1.20001C14.2457 1.20001 14.323 1.20092 14.4 1.20273V7.80001Z" fill="white"/>
</svg>
