<svg width="32" height="28" viewBox="0 0 32 28" fill="none" xmlns="http://www.w3.org/2000/svg">
<path d="M22.6667 26V23.3333C22.6667 21.9188 22.1048 20.5623 21.1046 19.5621C20.1044 18.5619 18.7478 18 17.3333 18H6.66668C5.25219 18 3.89563 18.5619 2.89544 19.5621C1.89525 20.5623 1.33334 21.9188 1.33334 23.3333V26M30.6667 26V23.3333C30.6658 22.1516 30.2725 21.0037 29.5485 20.0698C28.8245 19.1358 27.8109 18.4688 26.6667 18.1733M21.3333 2.17333C22.4806 2.46707 23.4974 3.13427 24.2235 4.06975C24.9497 5.00523 25.3438 6.15577 25.3438 7.34C25.3438 8.52423 24.9497 9.67477 24.2235 10.6103C23.4974 11.5457 22.4806 12.2129 21.3333 12.5067M17.3333 7.33333C17.3333 10.2789 14.9455 12.6667 12 12.6667C9.05449 12.6667 6.66668 10.2789 6.66668 7.33333C6.66668 4.38781 9.05449 2 12 2C14.9455 2 17.3333 4.38781 17.3333 7.33333Z" stroke="#1E1E1E" stroke-width="3" stroke-linecap="round" stroke-linejoin="round"/>
</svg>
